<?xml version="1.0" encoding="utf-8"?>
<!-- Generator: Adobe Illustrator 24.1.2, SVG Export Plug-In . SVG Version: 6.00 Build 0)  -->
<svg version="1.1" id="Capa_1" xmlns="http://www.w3.org/2000/svg" xmlns:xlink="http://www.w3.org/1999/xlink" x="0px" y="0px"
	 viewBox="0 0 140 50" style="enable-background:new 0 0 140 50;" xml:space="preserve">
<style type="text/css">
	.st0{display:none;}
	.st1{display:inline;}
	.st2{fill:none;}
	.st3{fill:#1A1A1A;}
	.st4{display:inline;fill:#1A1A1A;}
	.st5{fill:#FFFFFF;}
	.st6{font-family:'Ubuntu-Medium';}
	.st7{font-size:17.3431px;}
	.st8{fill:#FFFFFF;stroke:#FFFFFF;stroke-width:0.9371;stroke-miterlimit:10;}
</style>
<g id="Capa_1_1_" class="st0">
	<g class="st1">
		<rect x="31.5" y="18.1" class="st2" width="102.5" height="12.9"/>
		<path class="st3" d="M36.3,20.3c-1.2,0-1.9,0.4-1.9,1.2c0,0.4,0.2,0.6,0.5,0.8c0.3,0.2,1,0.5,2.2,0.8s1.9,0.8,2.4,1.2
			c0.5,0.5,0.7,1.2,0.7,2.1c0,1.2-0.4,2.1-1.1,2.8c-0.7,0.6-1.7,0.9-2.9,0.9c-0.9,0-2-0.1-3.2-0.4l-0.6-0.1l0.2-1.8
			c1.5,0.2,2.7,0.3,3.5,0.3c1.2,0,1.8-0.5,1.8-1.5c0-0.4-0.1-0.6-0.4-0.9c-0.3-0.2-0.8-0.4-1.7-0.7c-1.3-0.4-2.2-0.8-2.8-1.3
			c-0.5-0.5-0.8-1.2-0.8-2.2c0-1.2,0.4-2,1.1-2.6C34,18.3,35,18,36.2,18c0.8,0,1.9,0.1,3.2,0.3l0.6,0.1l-0.2,1.9
			C38.1,20.4,37,20.3,36.3,20.3z"/>
		<path class="st3" d="M44.1,30h-2.3v-8.5H44V22c0.8-0.5,1.5-0.7,2-0.7c0.9,0,1.6,0.3,2.1,0.8c1-0.5,2-0.8,2.9-0.8
			c1.1,0,1.9,0.3,2.3,1C53.7,23,54,24,54,25.4V30h-2.3v-4.5c0-0.7-0.1-1.3-0.2-1.6s-0.5-0.5-1-0.5c-0.4,0-0.8,0.1-1.3,0.2L49,23.7
			c0,0.8,0.1,1.5,0.1,1.9V30h-2.3v-4.4c0-0.8-0.1-1.4-0.2-1.8c-0.1-0.3-0.5-0.5-1-0.5c-0.4,0-0.9,0.1-1.3,0.2l-0.2,0.1V30z"/>
		<path class="st3" d="M62.6,24.2v3.5c0,0.3,0.1,0.5,0.1,0.6c0.1,0.1,0.2,0.2,0.4,0.2L63,30.2c-0.6,0-1,0-1.4-0.1
			c-0.3-0.1-0.7-0.2-1-0.5c-0.8,0.4-1.6,0.6-2.5,0.6c-1.8,0-2.6-0.9-2.6-2.8c0-0.9,0.2-1.5,0.7-1.9s1.2-0.6,2.2-0.7l1.8-0.1v-0.5
			c0-0.4-0.1-0.6-0.2-0.7s-0.4-0.2-0.8-0.2L56,23.4v-1.6c1.2-0.3,2.4-0.5,3.5-0.5s1.9,0.2,2.4,0.7C62.3,22.4,62.6,23.2,62.6,24.2z
			 M58.7,26.4c-0.6,0.1-1,0.4-1,1s0.3,0.9,0.8,0.9c0.4,0,0.9-0.1,1.4-0.2l0.3-0.1v-1.8L58.7,26.4z"/>
		<path class="st3" d="M64.7,30v-8.5H67v0.9c1-0.6,1.9-0.9,2.7-1.1v2.3c-0.9,0.2-1.7,0.4-2.4,0.6L67,24.3V30H64.7z"/>
		<path class="st3" d="M75.8,23.5h-2.1V27c0,0.3,0,0.6,0,0.7s0.1,0.3,0.2,0.4s0.3,0.2,0.5,0.2h1.3l0.1,1.8c-0.8,0.2-1.3,0.3-1.7,0.3
			c-1,0-1.7-0.2-2.1-0.7s-0.6-1.3-0.6-2.5v-3.5h-1v-1.9h1v-2.4h2.3v2.4h2.1C75.8,21.8,75.8,23.5,75.8,23.5z"/>
		<path class="st3" d="M80.2,30l2.6-11.6h4.5L89.9,30h-2.3l-0.5-2.1h-4L82.6,30H80.2z M84.6,20.4l-1.2,5.5h3.2l-1.2-5.5H84.6z"/>
		<path class="st3" d="M98.8,31.1c0,1-0.4,1.7-1.1,2.2s-1.8,0.7-3,0.7c-1.3,0-2.3-0.2-2.9-0.5c-0.7-0.3-1-1-1-1.9
			c0-0.7,0.4-1.4,1.2-2c-0.4-0.3-0.6-0.7-0.6-1.3c0-0.2,0.2-0.6,0.5-1.1l0.2-0.2c-0.8-0.6-1.2-1.4-1.2-2.5s0.3-1.9,1-2.4
			s1.5-0.7,2.6-0.7c0.5,0,1,0.1,1.4,0.2l0.3,0.1l2.7-0.1v1.8l-1.3-0.1c0.2,0.4,0.4,0.8,0.4,1.2c0,1.1-0.3,1.9-0.9,2.3
			s-1.5,0.6-2.7,0.6c-0.3,0-0.5,0-0.7-0.1c-0.1,0.3-0.2,0.5-0.2,0.7s0.1,0.3,0.3,0.4c0.2,0.1,0.6,0.1,1.4,0.1c1.4,0,2.4,0.2,2.9,0.6
			S98.8,30.1,98.8,31.1z M92.9,31.3c0,0.5,0.6,0.7,1.8,0.7c1.2,0,1.8-0.3,1.8-0.8c0-0.3-0.1-0.5-0.3-0.6s-0.6-0.1-1.3-0.1l-1.5-0.1
			C93.1,30.7,92.9,31,92.9,31.3z M93,24.4c0,0.8,0.4,1.2,1.3,1.2s1.3-0.4,1.3-1.2s-0.4-1.2-1.3-1.2S93,23.5,93,24.4z"/>
		<path class="st3" d="M102.5,27.9c0.3,0.2,0.6,0.3,1.1,0.3c1.1,0,2,0,2.8-0.1l0.5-0.1v1.7c-1.3,0.3-2.5,0.5-3.5,0.5
			c-1.3,0-2.2-0.3-2.8-1c-0.6-0.7-0.9-1.8-0.9-3.3c0-3,1.3-4.6,3.8-4.6s3.7,1.3,3.7,3.8l-0.2,1.6h-5C102,27.3,102.2,27.6,102.5,27.9
			z M105,25c0-0.7-0.1-1.2-0.3-1.4c-0.2-0.3-0.6-0.4-1.1-0.4s-0.9,0.1-1.1,0.4s-0.3,0.7-0.3,1.4H105z"/>
		<path class="st3" d="M111.1,30h-2.3v-8.5h2.3V22c0.8-0.5,1.5-0.7,2.1-0.7c1.1,0,1.9,0.3,2.3,1s0.6,1.7,0.6,3.1V30h-2.3v-4.5
			c0-0.7-0.1-1.3-0.3-1.6c-0.2-0.3-0.5-0.5-1-0.5s-0.9,0.1-1.3,0.2l-0.2,0.1V30H111.1z"/>
		<path class="st3" d="M121.4,21.3c0.6,0,1.3,0.1,2.3,0.3l0.5,0.1l-0.1,1.8c-0.9-0.1-1.6-0.1-2-0.1c-0.8,0-1.3,0.2-1.6,0.5
			c-0.3,0.3-0.4,1-0.4,1.9s0.1,1.6,0.4,1.9s0.8,0.5,1.6,0.5l2-0.1l0.1,1.8c-1.2,0.2-2.1,0.4-2.8,0.4c-1.3,0-2.2-0.4-2.7-1.1
			s-0.8-1.8-0.8-3.4s0.3-2.7,0.8-3.4C119.2,21.7,120.2,21.3,121.4,21.3z"/>
		<path class="st3" d="M125,21.5h2.2l1.5,6.6h0.4l1.5-6.6h2.2l-3,12.1h-2.2l0.9-3.6h-1.6L125,21.5z"/>
	</g>
	<circle class="st4" cx="18" cy="24" r="10"/>
	<g class="st1">
		<rect x="13.5" y="18.1" class="st2" width="9.5" height="12.9"/>
		<path class="st5" d="M18.3,20.3c-1.2,0-1.9,0.4-1.9,1.2c0,0.4,0.2,0.6,0.5,0.8c0.3,0.2,1,0.5,2.2,0.8s1.9,0.8,2.4,1.2
			c0.5,0.5,0.7,1.2,0.7,2.1c0,1.2-0.4,2.1-1.1,2.8c-0.7,0.6-1.7,0.9-2.9,0.9c-0.9,0-2-0.1-3.2-0.4l-0.6-0.1l0.2-1.8
			c1.5,0.2,2.7,0.3,3.5,0.3c1.2,0,1.8-0.5,1.8-1.5c0-0.4-0.1-0.6-0.4-0.8c-0.3-0.2-0.8-0.4-1.7-0.7c-1.3-0.4-2.2-0.8-2.8-1.3
			c-0.5-0.5-0.8-1.2-0.8-2.2c0-1.2,0.4-2,1.1-2.6c0.7-0.6,1.7-0.9,2.9-0.9c0.8,0,1.9,0.1,3.2,0.3l0.6,0.1l-0.2,1.9
			C20.1,20.4,19,20.3,18.3,20.3z"/>
	</g>
</g>
<text transform="matrix(1 0 0 1 23.3965 30.3136)" class="st5 st6 st7">Tienda Flower</text>
<g>
	<path class="st8" d="M18.2,26.3c-0.9-0.2-1.9-0.3-2.8-0.3c0.5-1.4,0.7-3.1,0.3-5c0-0.2-0.2-0.3-0.4-0.2c0,0,0,0,0,0
		c-1,0.3-2,0.7-2.9,1.3c-0.6-1.6-1.6-3-2.9-4.1c-0.1-0.1-0.3-0.1-0.4,0c-1.3,1.4-2.2,2.8-2.7,4.2c-1-0.7-2-1.1-3.1-1.5
		c-0.2,0-0.3,0.1-0.4,0.2c0,0,0,0,0,0c-0.3,1.9-0.2,3.6,0.3,5c-1,0-1.9,0.1-2.8,0.3c-0.1,0-0.2,0.1-0.2,0.2c0,0.1,0,0.2,0,0.3
		c1.3,3.3,3.9,4.1,6,4.1c1.1,0,2.1-0.2,3.1-0.5c1,0.3,2.1,0.5,3.1,0.5c2.1,0,4.7-0.8,6-4.1c0-0.1,0-0.2,0-0.3
		C18.3,26.4,18.2,26.3,18.2,26.3z M14.6,26.1c-1.1,0.1-2.2,0.4-3.2,0.9c-0.1,0-0.1,0-0.1,0.1l0,0c-0.6,0.4-1.2,0.8-1.6,1.4
		c0-0.6,0-1.1-0.2-1.7c0.4-1.5,1.3-2.9,2.8-3.9c0.8-0.6,1.8-1,2.7-1.3C15.4,23.3,15.2,24.8,14.6,26.1z M9.3,18.7
		c0.5,0.5,2,1.9,2.5,3.8c-1.2,0.8-2.1,1.9-2.6,3.2c-0.5-1.2-1.3-2.3-2.4-3.1C7.3,21.3,8.1,20,9.3,18.7z M3.4,21.5
		c1.1,0.3,2,0.9,2.9,1.5l0,0c1.3,0.9,2.2,2.2,2.6,3.8c-0.1,0.5-0.2,1.1-0.2,1.7c-1.2-1.7-3.2-2.2-4.9-2.4
		C3.3,24.8,3.2,23.3,3.4,21.5L3.4,21.5z M5.7,30.1c-2.3-0.1-3.9-1.3-4.9-3.3c1.4-0.2,6.3-0.8,8,2.9C7.9,30.1,6.8,30.2,5.7,30.1
		L5.7,30.1z M12.8,30.1c-1.1,0-2.1-0.1-3.1-0.4c1.6-3.7,6.6-3.2,8-2.9C16.7,28.9,15.1,30,12.8,30.1L12.8,30.1z"/>
</g>
</svg>
