<?xml version="1.0" encoding="utf-8"?>
<!-- Generator: Adobe Illustrator 24.1.2, SVG Export Plug-In . SVG Version: 6.00 Build 0)  -->
<svg version="1.1" id="Capa_1" xmlns="http://www.w3.org/2000/svg" xmlns:xlink="http://www.w3.org/1999/xlink" x="0px" y="0px"
	 viewBox="0 0 149.5 50" style="enable-background:new 0 0 149.5 50;" xml:space="preserve">
<style type="text/css">
	.st0{fill:#1A1A1A;}
	.st1{font-family:'Ubuntu-Medium';}
	.st2{font-size:18.5068px;}
	.st3{fill:#FCBBC5;}
	.st4{fill:#1A1A1A;stroke:#1A1A1A;stroke-miterlimit:10;}
</style>
<text transform="matrix(1 0 0 1 24.8073 30.0948)" class="st0 st1 st2">Tienda Flower</text>
<path class="st3" d="M-207.7,8.3c0.6,0.3,1.3,0.2,1.7-0.2c0.3-0.3,0.4-0.7,0.3-1c-0.1-0.3-0.2-0.7-0.4-0.9c-0.2-0.3-0.5-0.6-0.9-0.7
	c-0.4-0.1-0.8,0-1,0.4c0,0,0,0.1,0,0.1c-0.3,0.2-0.5,0.6-0.5,1C-208.6,7.5-208.3,8.1-207.7,8.3z M-207.9,7.3
	C-207.9,7.3-207.9,7.3-207.9,7.3L-207.9,7.3z M-206.6,7.8C-206.7,7.8-206.7,7.8-206.6,7.8L-206.6,7.8z M-207.1,6.1
	C-207.1,6.1-207.1,6.1-207.1,6.1c0.1,0,0.1,0,0.1,0c0,0,0,0,0,0c0,0,0,0,0.1,0c0,0,0,0,0,0c0,0,0,0,0,0c0,0,0,0,0.1,0.1
	c0,0,0,0,0.1,0.1c0,0,0,0,0,0.1c0,0,0,0,0,0c0.1,0.2,0.3,0.4,0.3,0.6c0,0.1,0.1,0.2,0.1,0.4c0,0,0,0.1,0,0.1c0,0,0,0,0,0.1
	c0,0,0,0,0,0c0,0,0,0,0,0c0,0,0,0-0.1,0.1c0,0,0,0,0,0c-0.1,0-0.1,0.1-0.2,0.1c0,0,0,0,0,0c0,0-0.1,0-0.1,0c0,0-0.1,0-0.1,0
	c0,0,0,0,0,0c0,0-0.1,0-0.1,0c0,0-0.1,0-0.1,0c0.1,0-0.1,0-0.1,0c-0.1,0-0.1,0-0.2-0.1c0,0,0,0,0,0c0,0,0,0-0.1,0c0,0-0.1,0-0.1-0.1
	c0,0,0,0,0,0c0,0,0,0,0,0c0,0-0.1-0.1-0.1-0.1c0,0,0,0,0,0c0,0,0,0,0-0.1c0,0,0,0,0-0.1c0,0,0,0,0,0c0-0.1,0-0.1,0-0.2
	c0,0,0,0,0-0.1c0,0.1,0,0,0-0.1c0-0.3,0.1-0.5,0.3-0.7c0.1,0,0.1,0,0.2-0.1c0,0,0,0,0,0c0,0,0,0,0,0c0,0,0,0,0,0c0,0,0,0,0,0
	c0,0,0,0,0.1,0c0,0,0,0,0,0C-207.2,6.1-207.2,6.1-207.1,6.1C-207.2,6.1-207.2,6.1-207.1,6.1z M-207.3,6.1
	C-207.3,6.1-207.3,6.1-207.3,6.1L-207.3,6.1z"/>
<path class="st3" d="M-202.6,19c0,0,0.1,0,0.1,0c0,0,0.1,0,0.1-0.1c0,0,0.1-0.1,0.1-0.1c0-0.1,0-0.1,0-0.2c0,0,0-0.1,0-0.1
	c0,0,0,0,0-0.1c0,0,0-0.1-0.1-0.1c0,0,0,0-0.1,0c0,0-0.1,0-0.1,0c0,0-0.1,0-0.1,0c0,0,0,0-0.1,0c0,0-0.1,0-0.1,0.1
	c0,0,0,0.1-0.1,0.1c0,0,0,0.1,0,0.1c0,0.1,0,0.1,0,0.2c0,0.1,0,0.1,0.1,0.1c0,0,0,0,0.1,0C-202.8,18.9-202.7,19-202.6,19z"/>
<path class="st3" d="M-198.1-13.6c0,0.1,0.1,0.1,0.1,0.1c0,0,0.1,0.1,0.1,0.1c0.1,0,0.1,0,0.2,0c0,0,0.1,0,0.1,0
	c0.1,0,0.1-0.1,0.2-0.1c0,0,0-0.1,0.1-0.1c0-0.1,0.1-0.2,0.1-0.2c0,0,0,0,0,0c0-0.1,0-0.1,0-0.2c0-0.1-0.1-0.1-0.1-0.2
	c0,0-0.1-0.1-0.2-0.1c-0.1,0-0.1,0-0.2,0c0,0-0.1,0-0.1,0c-0.1,0-0.1,0.1-0.2,0.1c0,0,0,0.1-0.1,0.1c0,0.1-0.1,0.2-0.1,0.2
	c0,0,0,0,0,0C-198.2-13.7-198.2-13.6-198.1-13.6z"/>
<g>
	<path class="st4" d="M19.2,25.8c-1-0.2-2-0.3-3-0.3c0.6-1.5,0.7-3.3,0.4-5.3c0-0.2-0.2-0.3-0.4-0.3c0,0,0,0,0,0
		C15,20.3,14,20.7,13,21.3c-0.6-1.7-1.7-3.2-3.1-4.3c-0.1-0.1-0.3-0.1-0.4,0c-1.4,1.5-2.4,3-2.9,4.5c-1-0.7-2.1-1.2-3.3-1.6
		c-0.2,0-0.3,0.1-0.4,0.2c0,0,0,0,0,0c-0.4,2.1-0.2,3.8,0.4,5.3c-1,0-2,0.1-3,0.3c-0.1,0-0.2,0.1-0.2,0.2c0,0.1,0,0.2,0,0.3
		c1.4,3.5,4.2,4.3,6.4,4.3c1.1,0,2.2-0.2,3.3-0.6c1.1,0.4,2.2,0.5,3.3,0.6c2.2,0,5-0.8,6.4-4.3c0-0.1,0-0.2,0-0.3
		C19.4,25.9,19.3,25.8,19.2,25.8z M15.5,25.6c-1.2,0.1-2.3,0.4-3.4,0.9c-0.1,0-0.1,0-0.1,0.1l0,0c-0.7,0.4-1.2,0.9-1.7,1.5
		c0-0.6,0-1.2-0.2-1.8c0.4-1.6,1.4-3,3-4.2c0.9-0.6,1.9-1.1,2.9-1.4C16.2,22.6,16.1,24.2,15.5,25.6z M9.8,17.7c0.6,0.5,2.1,2,2.7,4
		c-1.2,0.9-2.2,2.1-2.8,3.5c-0.5-1.3-1.4-2.4-2.5-3.3C7.6,20.5,8.5,19.1,9.8,17.7z M3.5,20.7c1.1,0.4,2.2,0.9,3.1,1.6l0,0
		c1.4,1,2.3,2.4,2.8,4c-0.1,0.6-0.2,1.2-0.2,1.8c-1.3-1.8-3.4-2.4-5.2-2.5C3.4,24.2,3.2,22.6,3.5,20.7L3.5,20.7z M6,29.9
		c-2.4-0.1-4.2-1.3-5.2-3.6c1.5-0.3,6.8-0.8,8.5,3.1C8.2,29.8,7.1,30,6,29.9L6,29.9z M13.5,29.9c-1.1,0-2.3-0.1-3.3-0.4
		c1.7-4,7.1-3.4,8.5-3.1C17.7,28.6,15.9,29.8,13.5,29.9L13.5,29.9z"/>
</g>
</svg>
