<?xml version="1.0" encoding="utf-8"?>
<!-- Generator: Adobe Illustrator 24.1.2, SVG Export Plug-In . SVG Version: 6.00 Build 0)  -->
<svg version="1.1" id="Capa_1" xmlns="http://www.w3.org/2000/svg" xmlns:xlink="http://www.w3.org/1999/xlink" x="0px" y="0px"
	 viewBox="0 0 149.5 50" style="enable-background:new 0 0 149.5 50;" xml:space="preserve">
<style type="text/css">
	.st0{enable-background:new    ;}
	.st1{fill:#1A1A1A;}
	.st2{fill:#FCBBC5;}
	.st3{fill:#1A1A1A;stroke:#1A1A1A;stroke-miterlimit:10;}
</style>
<g class="st0">
	<path class="st1" d="M35.3,17.3v2h-3.9v10.8H29V19.3H25v-2H35.3z"/>
	<path class="st1" d="M39.4,17.6c0,0.4-0.1,0.8-0.4,1c-0.3,0.2-0.6,0.4-1,0.4c-0.4,0-0.7-0.1-1-0.4c-0.3-0.2-0.4-0.6-0.4-1
		c0-0.4,0.1-0.8,0.4-1c0.3-0.2,0.6-0.4,1-0.4c0.4,0,0.7,0.1,1,0.4S39.4,17.2,39.4,17.6z M39.2,30.1H37v-9.7h2.2V30.1z"/>
	<path class="st1" d="M41.5,25.3c0-0.9,0.1-1.6,0.4-2.2s0.6-1.2,1-1.6c0.4-0.4,0.9-0.7,1.4-1s1.1-0.3,1.7-0.3c1.3,0,2.4,0.4,3.1,1.2
		c0.7,0.8,1.1,2.1,1.1,3.7c0,0.1,0,0.3,0,0.4c0,0.2,0,0.3,0,0.4h-6.4c0.1,0.8,0.3,1.4,0.8,1.8c0.5,0.4,1.2,0.6,2.1,0.6
		c0.5,0,1,0,1.5-0.1c0.5-0.1,0.8-0.2,1.1-0.3l0.3,1.8c-0.1,0.1-0.3,0.1-0.5,0.2s-0.5,0.1-0.7,0.2c-0.3,0.1-0.6,0.1-0.9,0.1
		c-0.3,0-0.6,0.1-1,0.1c-0.9,0-1.6-0.1-2.2-0.4c-0.6-0.3-1.1-0.6-1.6-1.1s-0.7-1-0.9-1.6C41.6,26.7,41.5,26,41.5,25.3z M48,24.3
		c0-0.3,0-0.6-0.1-0.9c-0.1-0.3-0.2-0.5-0.4-0.7c-0.2-0.2-0.4-0.4-0.6-0.5C46.7,22.1,46.4,22,46,22c-0.3,0-0.6,0.1-0.9,0.2
		c-0.3,0.1-0.5,0.3-0.7,0.5c-0.2,0.2-0.3,0.5-0.4,0.7c-0.1,0.3-0.2,0.5-0.2,0.8H48z"/>
	<path class="st1" d="M52.6,20.7c0.4-0.1,1-0.2,1.7-0.4c0.7-0.1,1.5-0.2,2.3-0.2c0.8,0,1.4,0.1,2,0.3c0.5,0.2,1,0.5,1.3,0.9
		s0.5,0.9,0.7,1.4c0.1,0.5,0.2,1.2,0.2,1.8v5.4h-2.2V25c0-0.5,0-1-0.1-1.3c-0.1-0.4-0.2-0.7-0.3-0.9c-0.2-0.2-0.4-0.4-0.6-0.5
		c-0.3-0.1-0.6-0.2-1-0.2c-0.3,0-0.6,0-0.9,0.1c-0.3,0-0.5,0.1-0.7,0.1v7.8h-2.2V20.7z"/>
	<path class="st1" d="M71.6,29.8c-0.4,0.1-1,0.3-1.7,0.4c-0.7,0.1-1.4,0.2-2.1,0.2c-0.8,0-1.4-0.1-2.1-0.4s-1.1-0.6-1.5-1
		c-0.4-0.4-0.8-1-1-1.6c-0.2-0.6-0.3-1.3-0.3-2.1c0-0.8,0.1-1.5,0.3-2.1c0.2-0.6,0.5-1.2,0.8-1.6c0.4-0.4,0.8-0.8,1.4-1
		c0.5-0.2,1.1-0.4,1.8-0.4c0.5,0,0.9,0.1,1.2,0.2c0.4,0.1,0.7,0.2,0.9,0.4v-4.6l2.2-0.4V29.8z M65.2,25.2c0,1,0.2,1.8,0.7,2.3
		s1.1,0.8,1.9,0.8c0.4,0,0.7,0,0.9,0c0.3,0,0.5-0.1,0.6-0.1v-5.6c-0.2-0.1-0.5-0.3-0.8-0.4c-0.3-0.1-0.7-0.2-1-0.2
		c-0.8,0-1.4,0.3-1.8,0.8C65.4,23.5,65.2,24.3,65.2,25.2z"/>
	<path class="st1" d="M77.7,20.2c0.7,0,1.4,0.1,1.9,0.3c0.5,0.2,0.9,0.4,1.2,0.8c0.3,0.3,0.5,0.7,0.6,1.2c0.1,0.5,0.2,1,0.2,1.6v5.9
		c-0.3,0.1-0.9,0.2-1.6,0.3c-0.7,0.1-1.5,0.2-2.4,0.2c-0.6,0-1.1-0.1-1.6-0.2s-0.9-0.3-1.2-0.5c-0.3-0.2-0.6-0.6-0.8-1
		c-0.2-0.4-0.3-0.9-0.3-1.5c0-0.6,0.1-1,0.3-1.4c0.2-0.4,0.5-0.7,0.9-0.9c0.4-0.2,0.8-0.4,1.3-0.5c0.5-0.1,1-0.2,1.5-0.2
		c0.2,0,0.5,0,0.8,0c0.3,0,0.6,0.1,0.9,0.2V24c0-0.3,0-0.5-0.1-0.7c-0.1-0.2-0.2-0.4-0.3-0.6c-0.2-0.2-0.4-0.3-0.6-0.4
		c-0.3-0.1-0.6-0.1-1-0.1c-0.5,0-1,0-1.4,0.1c-0.4,0.1-0.8,0.2-1.1,0.3l-0.3-1.8c0.3-0.1,0.7-0.2,1.2-0.3
		C76.5,20.2,77.1,20.2,77.7,20.2z M77.9,28.5c0.7,0,1.2,0,1.6-0.1v-2.5c-0.1,0-0.3-0.1-0.5-0.1s-0.5-0.1-0.8-0.1
		c-0.2,0-0.5,0-0.8,0.1s-0.5,0.1-0.7,0.2c-0.2,0.1-0.4,0.2-0.5,0.4c-0.1,0.2-0.2,0.4-0.2,0.7c0,0.5,0.2,0.9,0.5,1.1
		C76.9,28.4,77.3,28.5,77.9,28.5z"/>
	<path class="st1" d="M88.8,30.1V17.3h8.1v2h-5.8v3.3h5.1v2h-5.1v5.6H88.8z"/>
	<path class="st1" d="M102.2,30.3c-0.7,0-1.2-0.1-1.7-0.2c-0.4-0.1-0.8-0.3-1-0.6c-0.3-0.3-0.4-0.6-0.5-0.9
		c-0.1-0.4-0.2-0.8-0.2-1.3V16.1l2.2-0.4v11.1c0,0.3,0,0.5,0.1,0.7c0,0.2,0.1,0.3,0.2,0.5s0.3,0.2,0.5,0.3c0.2,0.1,0.4,0.1,0.7,0.2
		L102.2,30.3z"/>
	<path class="st1" d="M113.1,25.2c0,0.8-0.1,1.5-0.3,2.1c-0.2,0.6-0.5,1.2-0.9,1.6s-0.9,0.8-1.5,1c-0.6,0.2-1.2,0.4-1.9,0.4
		c-0.7,0-1.3-0.1-1.9-0.4c-0.6-0.2-1.1-0.6-1.5-1s-0.7-1-1-1.6c-0.2-0.6-0.3-1.3-0.3-2.1s0.1-1.5,0.3-2.1s0.5-1.2,1-1.6
		c0.4-0.4,0.9-0.8,1.5-1c0.6-0.2,1.2-0.4,1.9-0.4s1.3,0.1,1.9,0.4c0.6,0.2,1.1,0.6,1.5,1c0.4,0.4,0.7,1,1,1.6S113.1,24.5,113.1,25.2
		z M110.8,25.2c0-1-0.2-1.7-0.6-2.3c-0.4-0.6-1-0.8-1.7-0.8s-1.3,0.3-1.7,0.8c-0.4,0.6-0.6,1.3-0.6,2.3c0,1,0.2,1.7,0.6,2.3
		s1,0.9,1.7,0.9s1.3-0.3,1.7-0.9S110.8,26.2,110.8,25.2z"/>
	<path class="st1" d="M121,24c-0.3,1.1-0.6,2.1-0.9,3.2c-0.3,1-0.7,2-1,2.9h-1.8c-0.2-0.6-0.5-1.2-0.8-1.9c-0.3-0.7-0.5-1.5-0.8-2.3
		c-0.3-0.8-0.5-1.7-0.8-2.6c-0.3-0.9-0.5-1.8-0.8-2.8h2.4c0.1,0.5,0.2,1.1,0.4,1.7c0.1,0.6,0.3,1.2,0.5,1.8c0.2,0.6,0.3,1.2,0.5,1.8
		c0.2,0.6,0.3,1.1,0.5,1.6c0.2-0.6,0.4-1.2,0.5-1.8c0.2-0.6,0.3-1.2,0.5-1.8c0.2-0.6,0.3-1.2,0.5-1.8c0.1-0.6,0.3-1.1,0.4-1.6h1.7
		c0.1,0.5,0.2,1,0.4,1.6c0.1,0.6,0.3,1.2,0.4,1.8c0.2,0.6,0.3,1.2,0.5,1.8s0.4,1.2,0.5,1.8c0.2-0.5,0.3-1,0.5-1.6
		c0.2-0.6,0.3-1.2,0.5-1.8c0.2-0.6,0.3-1.2,0.5-1.8s0.3-1.2,0.4-1.7h2.3c-0.3,1-0.5,1.9-0.8,2.8c-0.3,0.9-0.5,1.8-0.8,2.6
		c-0.3,0.8-0.5,1.6-0.8,2.3c-0.3,0.7-0.5,1.4-0.8,1.9h-1.8c-0.3-0.9-0.6-1.9-1-2.9S121.3,25.1,121,24z"/>
	<path class="st1" d="M129.1,25.3c0-0.9,0.1-1.6,0.4-2.2s0.6-1.2,1-1.6c0.4-0.4,0.9-0.7,1.4-1s1.1-0.3,1.7-0.3
		c1.3,0,2.4,0.4,3.1,1.2c0.7,0.8,1.1,2.1,1.1,3.7c0,0.1,0,0.3,0,0.4c0,0.2,0,0.3,0,0.4h-6.4c0.1,0.8,0.3,1.4,0.8,1.8
		c0.5,0.4,1.2,0.6,2.1,0.6c0.5,0,1,0,1.5-0.1s0.8-0.2,1.1-0.3l0.3,1.8c-0.1,0.1-0.3,0.1-0.5,0.2s-0.5,0.1-0.7,0.2
		c-0.3,0.1-0.6,0.1-0.9,0.1c-0.3,0-0.6,0.1-1,0.1c-0.9,0-1.6-0.1-2.2-0.4s-1.1-0.6-1.6-1.1s-0.7-1-0.9-1.6
		C129.2,26.7,129.1,26,129.1,25.3z M135.6,24.3c0-0.3,0-0.6-0.1-0.9c-0.1-0.3-0.2-0.5-0.4-0.7c-0.2-0.2-0.4-0.4-0.6-0.5
		c-0.2-0.1-0.5-0.2-0.9-0.2c-0.3,0-0.6,0.1-0.9,0.2c-0.3,0.1-0.5,0.3-0.7,0.5c-0.2,0.2-0.3,0.5-0.4,0.7c-0.1,0.3-0.2,0.5-0.2,0.8
		H135.6z"/>
	<path class="st1" d="M145.7,22.4c-0.2-0.1-0.4-0.1-0.8-0.2c-0.3-0.1-0.7-0.1-1.1-0.1c-0.2,0-0.5,0-0.8,0.1c-0.3,0-0.5,0.1-0.6,0.1
		v7.8h-2.2v-9.2c0.4-0.2,1-0.3,1.6-0.5c0.6-0.1,1.4-0.2,2.2-0.2c0.1,0,0.3,0,0.5,0c0.2,0,0.4,0,0.6,0.1c0.2,0,0.4,0.1,0.6,0.1
		c0.2,0,0.3,0.1,0.4,0.1L145.7,22.4z"/>
</g>
<path class="st2" d="M-207.7,8.3c0.6,0.3,1.3,0.2,1.7-0.2c0.3-0.3,0.4-0.7,0.3-1c-0.1-0.3-0.2-0.7-0.4-0.9c-0.2-0.3-0.5-0.6-0.9-0.7
	s-0.8,0-1,0.4V6c-0.3,0.2-0.5,0.6-0.5,1C-208.6,7.5-208.3,8.1-207.7,8.3z M-207.9,7.3L-207.9,7.3L-207.9,7.3z M-206.6,7.8
	C-206.7,7.8-206.7,7.8-206.6,7.8L-206.6,7.8z M-207.1,6.1L-207.1,6.1c0.1,0,0.1,0,0.1,0l0,0c0,0,0,0,0.1,0l0,0l0,0c0,0,0,0,0.1,0.1
	c0,0,0,0,0.1,0.1c0,0,0,0,0,0.1l0,0c0.1,0.2,0.3,0.4,0.3,0.6c0,0.1,0.1,0.2,0.1,0.4v0.1c0,0,0,0,0,0.1l0,0l0,0c0,0,0,0-0.1,0.1l0,0
	c-0.1,0-0.1,0.1-0.2,0.1l0,0h-0.1h-0.1l0,0h-0.1h-0.1c0.1,0-0.1,0-0.1,0c-0.1,0-0.1,0-0.2-0.1l0,0c0,0,0,0-0.1,0c0,0-0.1,0-0.1-0.1
	l0,0l0,0l-0.1-0.1l0,0c0,0,0,0,0-0.1c0,0,0,0,0-0.1l0,0c0-0.1,0-0.1,0-0.2c0,0,0,0,0-0.1c0,0.1,0,0,0-0.1c0-0.3,0.1-0.5,0.3-0.7
	C-207.2,6.2-207.2,6.2-207.1,6.1L-207.1,6.1L-207.1,6.1L-207.1,6.1L-207.1,6.1C-207.1,6.1-207.1,6.1-207.1,6.1L-207.1,6.1
	C-207.2,6.1-207.2,6.1-207.1,6.1C-207.2,6.1-207.2,6.1-207.1,6.1z M-207.3,6.1L-207.3,6.1L-207.3,6.1z"/>
<path class="st2" d="M-202.6,19h0.1c0,0,0.1,0,0.1-0.1l0.1-0.1c0-0.1,0-0.1,0-0.2v-0.1c0,0,0,0,0-0.1c0,0,0-0.1-0.1-0.1
	c0,0,0,0-0.1,0h-0.1h-0.1c0,0,0,0-0.1,0c0,0-0.1,0-0.1,0.1c0,0,0,0.1-0.1,0.1v0.1c0,0.1,0,0.1,0,0.2s0,0.1,0.1,0.1c0,0,0,0,0.1,0
	C-202.8,18.9-202.7,19-202.6,19z"/>
<path class="st2" d="M-198.1-13.6c0,0.1,0.1,0.1,0.1,0.1l0.1,0.1c0.1,0,0.1,0,0.2,0h0.1c0.1,0,0.1-0.1,0.2-0.1c0,0,0-0.1,0.1-0.1
	c0-0.1,0.1-0.2,0.1-0.2l0,0c0-0.1,0-0.1,0-0.2c0-0.1-0.1-0.1-0.1-0.2c0,0-0.1-0.1-0.2-0.1c-0.1,0-0.1,0-0.2,0h-0.1
	c-0.1,0-0.1,0.1-0.2,0.1c0,0,0,0.1-0.1,0.1c0,0.1-0.1,0.2-0.1,0.2l0,0C-198.2-13.7-198.2-13.6-198.1-13.6z"/>
<g>
	<path class="st3" d="M19.2,25.8c-1-0.2-2-0.3-3-0.3c0.6-1.5,0.7-3.3,0.4-5.3c0-0.2-0.2-0.3-0.4-0.3l0,0C15,20.3,14,20.7,13,21.3
		c-0.6-1.7-1.7-3.2-3.1-4.3c-0.1-0.1-0.3-0.1-0.4,0c-1.4,1.5-2.4,3-2.9,4.5c-1-0.7-2.1-1.2-3.3-1.6c-0.2,0-0.3,0.1-0.4,0.2l0,0
		c-0.4,2.1-0.2,3.8,0.4,5.3c-1,0-2,0.1-3,0.3c-0.1,0-0.2,0.1-0.2,0.2s0,0.2,0,0.3c1.4,3.5,4.2,4.3,6.4,4.3c1.1,0,2.2-0.2,3.3-0.6
		c1.1,0.4,2.2,0.5,3.3,0.6c2.2,0,5-0.8,6.4-4.3c0-0.1,0-0.2,0-0.3C19.4,25.9,19.3,25.8,19.2,25.8z M15.5,25.6
		c-1.2,0.1-2.3,0.4-3.4,0.9c-0.1,0-0.1,0-0.1,0.1l0,0c-0.7,0.4-1.2,0.9-1.7,1.5c0-0.6,0-1.2-0.2-1.8c0.4-1.6,1.4-3,3-4.2
		C14,21.5,15,21,16,20.7C16.2,22.6,16.1,24.2,15.5,25.6z M9.8,17.7c0.6,0.5,2.1,2,2.7,4c-1.2,0.9-2.2,2.1-2.8,3.5
		c-0.5-1.3-1.4-2.4-2.5-3.3C7.6,20.5,8.5,19.1,9.8,17.7z M3.5,20.7c1.1,0.4,2.2,0.9,3.1,1.6l0,0c1.4,1,2.3,2.4,2.8,4
		c-0.1,0.6-0.2,1.2-0.2,1.8c-1.3-1.8-3.4-2.4-5.2-2.5C3.4,24.2,3.2,22.6,3.5,20.7L3.5,20.7z M6,29.9c-2.4-0.1-4.2-1.3-5.2-3.6
		c1.5-0.3,6.8-0.8,8.5,3.1C8.2,29.8,7.1,30,6,29.9L6,29.9z M13.5,29.9c-1.1,0-2.3-0.1-3.3-0.4c1.7-4,7.1-3.4,8.5-3.1
		C17.7,28.6,15.9,29.8,13.5,29.9L13.5,29.9z"/>
</g>
</svg>
